<svg width="244" height="53" viewBox="0 0 244 53" fill="none" xmlns="http://www.w3.org/2000/svg">
<path d="M4.07692 11.6545C4.4963 11.6545 4.83318 11.3099 4.83318 10.8964V7.57441C4.83318 7.154 4.48943 6.81628 4.07692 6.81628H0.756259C0.336879 6.81628 0 7.16089 0 7.57441V10.8964C0 11.3168 0.343754 11.6545 0.756259 11.6545H4.07692Z" fill="#C2B59B"/>
<path d="M0.0410156 13.7084C0.536021 19.9733 5.46545 24.9149 11.7149 25.4111V14.4665C11.7149 14.0461 11.3711 13.7084 10.9586 13.7084H0.0410156Z" fill="#FFC93C"/>
<path d="M10.9592 4.75553C11.3786 4.75553 11.7155 4.41092 11.7155 3.9974V0C9.30921 0.427308 7.39793 2.35019 6.97168 4.75553H10.9592Z" fill="#C2B59B"/>
<path d="M46.029 13.7084H42.0414C41.622 13.7084 41.2852 14.053 41.2852 14.4665V18.4639C43.6846 18.0366 45.6027 16.1137 46.029 13.7084Z" fill="#FFC93C"/>
<path d="M32.2653 4.75553C31.839 2.3433 29.9209 0.427308 27.5215 0V3.9974C27.5215 4.41782 27.8652 4.75553 28.2777 4.75553H32.2653Z" fill="#094151"/>
<path d="M19.6212 13.7084C16.39 13.7084 13.7637 16.3411 13.7637 19.5804C13.7637 22.8197 16.39 25.4525 19.6212 25.4525C22.8525 25.4525 25.4788 22.8197 25.4788 19.5804C25.4788 16.3411 22.8457 13.7084 19.6212 13.7084Z" fill="#FF9A3C"/>
<path d="M29.9415 41.2972C28.6077 41.2972 27.5215 42.3862 27.5215 43.7232C27.5215 45.0603 28.6077 46.1493 29.9415 46.1493C31.2753 46.1493 32.3615 45.0603 32.3615 43.7232C32.3615 42.3862 31.2753 41.2972 29.9415 41.2972Z" fill="#094151"/>
<path d="M38.4793 11.6545C38.8987 11.6545 39.2355 11.3099 39.2355 10.8964V7.57441C39.2355 7.154 38.8918 6.81628 38.4793 6.81628H28.2836C27.8642 6.81628 27.5273 7.16089 27.5273 7.57441V10.8964C27.5273 11.3168 27.8711 11.6545 28.2836 11.6545H38.4793Z" fill="#094151"/>
<path d="M37.7929 25.4524L27.5215 15.1556V24.6874C27.5215 25.1078 27.8652 25.4455 28.2777 25.4455H37.7929V25.4524Z" fill="#FF6F3C"/>
<path d="M52.2372 20.6003H42.0414C41.622 20.6003 41.2852 20.9449 41.2852 21.3585V24.6804C41.2852 25.1009 41.6289 25.4386 42.0414 25.4386H52.2372C52.6566 25.4386 52.9934 25.094 52.9934 24.6804V21.3654C53.0003 20.9449 52.6566 20.6003 52.2372 20.6003Z" fill="#FFC93C"/>
<path d="M42.0414 27.4994C41.622 27.4994 41.2852 27.844 41.2852 28.2575V35.9215L45.4858 27.4994H42.0414Z" fill="#094151"/>
<path d="M48.167 42.0761V49.74L52.3677 41.311H48.9233C48.5039 41.3179 48.167 41.6556 48.167 42.0761Z" fill="#FF9A3C"/>
<path d="M13.7776 6.24421C13.9976 9.09753 16.3076 11.4202 19.1539 11.6407C22.2064 11.875 24.8671 9.77984 25.3827 6.80936H20.0614C19.2502 6.80936 18.5901 6.14772 18.5901 5.33446V0C15.6339 0.516905 13.5438 3.18414 13.7776 6.24421Z" fill="#FF6F3C"/>
<path d="M39.1954 41.2972H35.1597C34.7403 41.2972 34.4034 41.6418 34.4034 42.0554V46.7213C34.4034 47.5346 33.7434 48.1962 32.9322 48.1962H28.2777C27.8584 48.1962 27.5215 48.5408 27.5215 48.9543V53C33.7709 52.5037 38.7004 47.5621 39.1954 41.2972Z" fill="#FF6F3C"/>
<path d="M31.5495 32.3514C31.9689 32.3514 32.3058 32.0068 32.3058 31.5933V28.2713C32.3058 27.8509 31.962 27.5132 31.5495 27.5132H28.2358C27.8164 27.5132 27.4795 27.8578 27.4795 28.2713V31.5933C27.4795 32.0137 27.8232 32.3514 28.2358 32.3514H31.5495Z" fill="#FF9A3C"/>
<path d="M38.4802 18.5534C38.8996 18.5534 39.2365 18.2088 39.2365 17.7953V14.4733C39.2365 14.0529 38.8927 13.7152 38.4802 13.7152H35.1664C34.747 13.7152 34.4102 14.0598 34.4102 14.4733V17.7953C34.4102 18.2157 34.7539 18.5534 35.1664 18.5534H38.4802Z" fill="#FF6F3C"/>
<path d="M35.3098 27.4994C34.808 27.4994 34.4023 27.906 34.4023 28.4091V38.3337C34.4023 38.8368 34.808 39.2434 35.3098 39.2434C35.8117 39.2434 36.2173 38.8368 36.2173 38.3337V28.4091C36.2173 27.906 35.8117 27.4994 35.3098 27.4994Z" fill="#C2B59B"/>
<path d="M38.3284 27.4994C37.8265 27.4994 37.4209 27.906 37.4209 28.4091V38.3337C37.4209 38.8368 37.8265 39.2434 38.3284 39.2434C38.8303 39.2434 39.2359 38.8368 39.2359 38.3337V28.4091C39.2359 27.906 38.8303 27.4994 38.3284 27.4994Z" fill="#C2B59B"/>
<path d="M7.83036 6.80933C7.32848 6.80933 6.92285 7.21596 6.92285 7.71908V10.7447C6.92285 11.2478 7.32848 11.6544 7.83036 11.6544C8.33224 11.6544 8.73787 11.2478 8.73787 10.7447V7.71908C8.74474 7.21596 8.33224 6.80933 7.83036 6.80933Z" fill="#094151"/>
<path d="M10.8489 6.80933C10.347 6.80933 9.94141 7.21596 9.94141 7.71908V10.7447C9.94141 11.2478 10.347 11.6544 10.8489 11.6544C11.3508 11.6544 11.7564 11.2478 11.7564 10.7447V7.71908C11.7633 7.21596 11.3508 6.80933 10.8489 6.80933Z" fill="#094151"/>
<path d="M22.6329 0.668571C22.2754 0.310183 21.7047 0.310183 21.3472 0.668571C20.9897 1.02696 20.9897 1.599 21.3472 1.95739L23.4785 4.09393C23.836 4.45232 24.4067 4.45232 24.7642 4.09393C25.1217 3.73554 25.1217 3.1635 24.7642 2.80511L22.6329 0.668571Z" fill="#FF9A3C"/>
<path d="M29.4737 38.5335L31.6049 36.397C31.9625 36.0386 31.9625 35.4665 31.6049 35.1081C31.2474 34.7498 30.6768 34.7498 30.3193 35.1081L28.188 37.2447C27.8305 37.6031 27.8305 38.1751 28.188 38.5335C28.5387 38.8919 29.1162 38.8919 29.4737 38.5335Z" fill="#FFC93C"/>
<path d="M65.4805 36H68.4565L69.6325 32.256H76.4485L77.6365 36H80.6125L75.1645 18.72H70.9285L65.4805 36ZM70.4845 29.556L73.0165 21.516L75.5845 29.556H70.4845Z" fill="#094151"/>
<path d="M83.3007 36H86.1927V25.308H89.3247V23.04H86.1927V22.212C86.1927 21.764 86.3247 21.404 86.5887 21.132C86.8607 20.852 87.2727 20.712 87.8247 20.712H89.3247V18.36H87.7047C87.3927 18.36 87.0287 18.372 86.6127 18.396C86.1967 18.412 85.7727 18.5 85.3407 18.66C84.9167 18.812 84.5207 19.092 84.1527 19.5C83.7127 19.98 83.4607 20.532 83.3967 21.156C83.3327 21.78 83.3007 22.34 83.3007 22.836V23.04H81.2127V25.308H83.3007V36Z" fill="#094151"/>
<path d="M91.243 36H94.147V29.412C94.147 28.66 94.283 27.992 94.555 27.408C94.835 26.824 95.271 26.372 95.863 26.052C96.263 25.82 96.711 25.684 97.207 25.644C97.703 25.596 98.147 25.628 98.539 25.74V23.04C97.955 22.952 97.355 22.964 96.739 23.076C96.123 23.18 95.575 23.396 95.095 23.724C94.823 23.892 94.579 24.096 94.363 24.336C94.147 24.568 93.959 24.828 93.799 25.116V23.04H91.243V36Z" fill="#094151"/>
<path d="M101.069 21.072H103.961V18.42H101.069V21.072ZM101.069 36H103.961V23.04H101.069V36Z" fill="#094151"/>
<path d="M113.183 36.36C114.631 36.36 115.855 36.008 116.855 35.304C117.855 34.592 118.555 33.576 118.955 32.256L116.003 31.596C115.779 32.26 115.443 32.768 114.995 33.12C114.555 33.472 113.951 33.648 113.183 33.648C112.095 33.648 111.275 33.268 110.723 32.508C110.179 31.748 109.903 30.752 109.895 29.52C109.903 28.328 110.167 27.344 110.687 26.568C111.215 25.784 112.047 25.392 113.183 25.392C113.847 25.392 114.439 25.588 114.959 25.98C115.479 26.364 115.851 26.904 116.075 27.6L118.955 26.82C118.651 25.54 117.987 24.532 116.963 23.796C115.939 23.052 114.691 22.68 113.219 22.68C111.907 22.68 110.775 22.976 109.823 23.568C108.871 24.152 108.135 24.96 107.615 25.992C107.103 27.016 106.843 28.192 106.835 29.52C106.843 30.824 107.095 31.992 107.591 33.024C108.095 34.056 108.819 34.872 109.763 35.472C110.707 36.064 111.847 36.36 113.183 36.36Z" fill="#094151"/>
<path d="M124.773 36.36C125.805 36.36 126.681 36.192 127.401 35.856C128.129 35.512 128.769 34.98 129.321 34.26V36H131.853V28.044C131.853 27.484 131.829 26.968 131.781 26.496C131.733 26.016 131.593 25.548 131.361 25.092C130.937 24.236 130.285 23.62 129.405 23.244C128.533 22.868 127.521 22.68 126.369 22.68C124.849 22.68 123.637 23.012 122.733 23.676C121.829 24.34 121.217 25.22 120.897 26.316L123.537 27.144C123.753 26.48 124.133 26.012 124.677 25.74C125.221 25.468 125.785 25.332 126.369 25.332C127.249 25.332 127.897 25.512 128.313 25.872C128.729 26.224 128.965 26.772 129.021 27.516C127.885 27.684 126.829 27.848 125.853 28.008C124.885 28.16 124.061 28.348 123.381 28.572C122.357 28.924 121.609 29.424 121.137 30.072C120.665 30.712 120.429 31.504 120.429 32.448C120.429 33.16 120.593 33.812 120.921 34.404C121.257 34.996 121.749 35.472 122.397 35.832C123.045 36.184 123.837 36.36 124.773 36.36ZM125.349 34.056C124.669 34.056 124.149 33.9 123.789 33.588C123.437 33.276 123.261 32.884 123.261 32.412C123.261 31.988 123.397 31.644 123.669 31.38C123.949 31.116 124.337 30.892 124.833 30.708C125.289 30.556 125.837 30.424 126.477 30.312C127.117 30.192 127.953 30.052 128.985 29.892C128.977 30.196 128.957 30.536 128.925 30.912C128.893 31.28 128.817 31.612 128.697 31.908C128.601 32.204 128.413 32.52 128.133 32.856C127.861 33.192 127.493 33.476 127.029 33.708C126.565 33.94 126.005 34.056 125.349 34.056Z" fill="#094151"/>
<path d="M139.782 36H145.29C145.426 36 145.71 35.996 146.142 35.988C146.582 35.98 146.998 35.952 147.39 35.904C148.766 35.728 149.926 35.244 150.87 34.452C151.814 33.652 152.53 32.636 153.018 31.404C153.506 30.172 153.75 28.824 153.75 27.36C153.75 25.896 153.506 24.548 153.018 23.316C152.53 22.084 151.814 21.068 150.87 20.268C149.926 19.468 148.766 18.984 147.39 18.816C146.99 18.768 146.574 18.74 146.142 18.732C145.718 18.724 145.434 18.72 145.29 18.72H139.782V36ZM142.722 33.276V21.444H145.29C145.53 21.444 145.834 21.452 146.202 21.468C146.57 21.476 146.902 21.512 147.198 21.576C147.998 21.728 148.654 22.084 149.166 22.644C149.678 23.204 150.058 23.896 150.306 24.72C150.562 25.536 150.69 26.416 150.69 27.36C150.69 28.264 150.57 29.128 150.33 29.952C150.09 30.776 149.71 31.476 149.19 32.052C148.678 32.62 148.014 32.984 147.198 33.144C146.902 33.2 146.57 33.236 146.202 33.252C145.834 33.268 145.53 33.276 145.29 33.276H142.722Z" fill="#094151"/>
<path d="M160.211 36.36C161.243 36.36 162.119 36.192 162.839 35.856C163.567 35.512 164.207 34.98 164.759 34.26V36H167.291V28.044C167.291 27.484 167.267 26.968 167.219 26.496C167.171 26.016 167.031 25.548 166.799 25.092C166.375 24.236 165.723 23.62 164.843 23.244C163.971 22.868 162.959 22.68 161.807 22.68C160.287 22.68 159.075 23.012 158.171 23.676C157.267 24.34 156.655 25.22 156.335 26.316L158.975 27.144C159.191 26.48 159.571 26.012 160.115 25.74C160.659 25.468 161.223 25.332 161.807 25.332C162.687 25.332 163.335 25.512 163.751 25.872C164.167 26.224 164.403 26.772 164.459 27.516C163.323 27.684 162.267 27.848 161.291 28.008C160.323 28.16 159.499 28.348 158.819 28.572C157.795 28.924 157.047 29.424 156.575 30.072C156.103 30.712 155.867 31.504 155.867 32.448C155.867 33.16 156.031 33.812 156.359 34.404C156.695 34.996 157.187 35.472 157.835 35.832C158.483 36.184 159.275 36.36 160.211 36.36ZM160.787 34.056C160.107 34.056 159.587 33.9 159.227 33.588C158.875 33.276 158.699 32.884 158.699 32.412C158.699 31.988 158.835 31.644 159.107 31.38C159.387 31.116 159.775 30.892 160.271 30.708C160.727 30.556 161.275 30.424 161.915 30.312C162.555 30.192 163.391 30.052 164.423 29.892C164.415 30.196 164.395 30.536 164.363 30.912C164.331 31.28 164.255 31.612 164.135 31.908C164.039 32.204 163.851 32.52 163.571 32.856C163.299 33.192 162.931 33.476 162.467 33.708C162.003 33.94 161.443 34.056 160.787 34.056Z" fill="#094151"/>
<path d="M178.011 36V33.576C177.203 33.696 176.483 33.728 175.851 33.672C175.219 33.616 174.759 33.348 174.471 32.868C174.319 32.62 174.235 32.3 174.219 31.908C174.211 31.508 174.207 31.052 174.207 30.54V25.308H178.011V23.04H174.207V19.44H171.327V23.04H168.975V25.308H171.327V30.708C171.327 31.452 171.335 32.116 171.351 32.7C171.367 33.276 171.523 33.844 171.819 34.404C172.155 35.02 172.647 35.472 173.295 35.76C173.943 36.04 174.675 36.188 175.491 36.204C176.315 36.228 177.155 36.16 178.011 36Z" fill="#094151"/>
<path d="M184.422 36.36C185.454 36.36 186.33 36.192 187.05 35.856C187.778 35.512 188.418 34.98 188.97 34.26V36H191.502V28.044C191.502 27.484 191.478 26.968 191.43 26.496C191.382 26.016 191.242 25.548 191.01 25.092C190.586 24.236 189.934 23.62 189.054 23.244C188.182 22.868 187.17 22.68 186.018 22.68C184.498 22.68 183.286 23.012 182.382 23.676C181.478 24.34 180.866 25.22 180.546 26.316L183.186 27.144C183.402 26.48 183.782 26.012 184.326 25.74C184.87 25.468 185.434 25.332 186.018 25.332C186.898 25.332 187.546 25.512 187.962 25.872C188.378 26.224 188.614 26.772 188.67 27.516C187.534 27.684 186.478 27.848 185.502 28.008C184.534 28.16 183.71 28.348 183.03 28.572C182.006 28.924 181.258 29.424 180.786 30.072C180.314 30.712 180.078 31.504 180.078 32.448C180.078 33.16 180.242 33.812 180.57 34.404C180.906 34.996 181.398 35.472 182.046 35.832C182.694 36.184 183.486 36.36 184.422 36.36ZM184.998 34.056C184.318 34.056 183.798 33.9 183.438 33.588C183.086 33.276 182.91 32.884 182.91 32.412C182.91 31.988 183.046 31.644 183.318 31.38C183.598 31.116 183.986 30.892 184.482 30.708C184.938 30.556 185.486 30.424 186.126 30.312C186.766 30.192 187.602 30.052 188.634 29.892C188.626 30.196 188.606 30.536 188.574 30.912C188.542 31.28 188.466 31.612 188.346 31.908C188.25 32.204 188.062 32.52 187.782 32.856C187.51 33.192 187.142 33.476 186.678 33.708C186.214 33.94 185.654 34.056 184.998 34.056Z" fill="#094151"/>
<path d="M199.43 36H202.322V28.704H210.506V36H213.386V18.72H210.506V25.992H202.322V18.72H199.43V36Z" fill="#094151"/>
<path d="M221.611 36.372C222.547 36.372 223.367 36.212 224.071 35.892C224.783 35.564 225.375 35.12 225.847 34.56V36H228.403V23.04H225.499V29.7C225.499 30.748 225.347 31.56 225.043 32.136C224.747 32.704 224.367 33.1 223.903 33.324C223.439 33.54 222.959 33.648 222.463 33.648C221.775 33.648 221.227 33.5 220.819 33.204C220.411 32.9 220.107 32.52 219.907 32.064C219.715 31.6 219.587 31.12 219.523 30.624C219.467 30.128 219.439 29.68 219.439 29.28V23.04H216.511V30.276C216.511 30.58 216.535 30.984 216.583 31.488C216.639 31.992 216.755 32.524 216.931 33.084C217.107 33.644 217.379 34.176 217.747 34.68C218.115 35.176 218.611 35.584 219.235 35.904C219.867 36.216 220.659 36.372 221.611 36.372Z" fill="#094151"/>
<path d="M231.75 36H234.306V35.04C234.77 35.456 235.31 35.78 235.926 36.012C236.542 36.244 237.234 36.36 238.002 36.36C239.202 36.36 240.242 36.06 241.122 35.46C242.01 34.86 242.698 34.044 243.186 33.012C243.674 31.98 243.918 30.816 243.918 29.52C243.918 28.208 243.67 27.036 243.174 26.004C242.686 24.972 241.99 24.16 241.086 23.568C240.182 22.976 239.118 22.68 237.894 22.68C237.246 22.68 236.654 22.768 236.118 22.944C235.582 23.112 235.098 23.356 234.666 23.676V18.72H231.75V36ZM237.558 33.768C236.398 33.768 235.566 33.376 235.062 32.592C234.558 31.8 234.306 30.776 234.306 29.52C234.306 28.256 234.554 27.232 235.05 26.448C235.554 25.664 236.358 25.272 237.462 25.272C238.238 25.272 238.874 25.464 239.37 25.848C239.874 26.224 240.246 26.736 240.486 27.384C240.734 28.024 240.858 28.736 240.858 29.52C240.858 30.312 240.738 31.028 240.498 31.668C240.266 32.308 239.906 32.82 239.418 33.204C238.93 33.58 238.31 33.768 237.558 33.768Z" fill="#094151"/>
</svg>
